<svg width="22" height="20" viewBox="0 0 22 20" fill="none" xmlns="http://www.w3.org/2000/svg">
<path d="M3.85 20C4.763 20 5.5 19.2556 5.5 18.3333V16.6667H16.5V18.3333C16.5 19.2556 17.237 20 18.15 20C19.063 20 19.8 19.2556 19.8 18.3333V15.5556C19.8 14.3333 18.81 13.3333 17.6 13.3333H4.4C3.19 13.3333 2.2 14.3333 2.2 15.5556V18.3333C2.2 19.2556 2.937 20 3.85 20ZM19.8 7.77778H20.9C21.505 7.77778 22 8.27778 22 8.88889V10C22 10.6111 21.505 11.1111 20.9 11.1111H19.8C19.195 11.1111 18.7 10.6111 18.7 10V8.88889C18.7 8.27778 19.195 7.77778 19.8 7.77778ZM1.1 7.77778H2.2C2.805 7.77778 3.3 8.27778 3.3 8.88889V10C3.3 10.6111 2.805 11.1111 2.2 11.1111H1.1C0.495 11.1111 0 10.6111 0 10V8.88889C0 8.27778 0.495 7.77778 1.1 7.77778ZM16.5 11.1111H5.5V2.22222C5.5 1 6.49 0 7.7 0H14.3C15.51 0 16.5 1 16.5 2.22222V11.1111Z" fill="#DC143C"/>
</svg>
