<svg width="12" height="20" viewBox="0 0 12 20" fill="none" xmlns="http://www.w3.org/2000/svg">
<path d="M8.6 19.4C9 19.8 9.4 20 10 20C10.6 20 11 19.8 11.4 19.4C11.8 19 12 18.6 12 18C12 17.4 11.8 17 11.4 16.6C11 16.2 10.5 16 10 16C9.5 16 9 16.2 8.6 16.6C8.2 17 8 17.4 8 18C8 18.6 8.2 19 8.6 19.4ZM0 17C0 17.5 0.2 18 0.6 18.4C1 18.8 1.5 19 2 19V5C1.5 5 1 5.2 0.6 5.6C0.2 6 0 6.5 0 7V17ZM10 0H6C6 0.5 6.2 1 6.6 1.4C7 1.8 7.5 2 8 2V5H3V19H7.2C7 18.5 7 18.2 7 18C7 17.2 7.3 16.5 7.9 15.9C8.5 15.3 9.2 15 10 15V0Z" fill="#DC143C"/>
</svg>
