<svg width="32" height="18" viewBox="0 0 32 18" fill="none" xmlns="http://www.w3.org/2000/svg">
<path d="M0 8.34521L31.2938 8.34521" stroke="#D9D9D9" stroke-dasharray="8 8"/>
<path d="M13.1345 17.1019L15.1729 16.908L18.9789 9.87871C18.9789 9.87871 20.2711 9.94148 22.176 9.87871C23.373 9.8094 24.5085 9.36185 25.3945 8.61024L25.3901 8.61369V8.48816C24.5094 7.74089 23.3813 7.29473 22.1916 7.22314L22.176 7.22245C20.2719 7.15968 18.9789 7.22245 18.9789 7.22245L15.1729 0.193822L13.1345 0L14.673 4.75174L15.1047 7.15968C13.321 7.0728 11.5337 7.24335 9.8062 7.66528L9.92637 7.64044L9.11413 5.75879H7.78042L8.37384 8.18673C8.14241 8.29365 7.954 8.39366 7.77152 8.50126L7.79748 8.48678H7.5883C7.62242 8.50885 7.65951 8.52954 7.69438 8.55093C7.66025 8.573 7.62317 8.593 7.5883 8.61576H7.79748C7.95326 8.70888 8.14166 8.80889 8.33601 8.89994L8.37384 8.91581L7.78042 11.3438H9.11413L9.92637 9.46209C11.2119 9.78145 12.688 9.96424 14.2094 9.96424C14.5246 9.96424 14.8376 9.95665 15.1484 9.94079L15.1054 9.94286L14.6737 12.3515L13.1353 17.1025L13.1345 17.1019Z" fill="#DC143C"/>
</svg>
